<svg width="1200" height="630" viewBox="0 0 1200 630" role="img" xmlns="http://www.w3.org/2000/svg">
<title>Aden's Study Portal — Open Graph preview image</title>
<desc>Branded card for Aden's Study Portal on a dark background with cyan accents</desc>

<rect width="1200" height="630" fill="#0d1117"/>
<rect x="0" y="0" width="6" height="630" fill="#00e5ff"/>
<rect x="0" y="0" width="1200" height="6" fill="#161b22"/>
<rect x="0" y="624" width="1200" height="6" fill="#161b22"/>

<circle cx="1080" cy="80" r="220" fill="none" stroke="#161b22" stroke-width="50"/>
<circle cx="1080" cy="80" r="130" fill="none" stroke="#1c2330" stroke-width="30"/>
<circle cx="200" cy="580" r="150" fill="none" stroke="#161b22" stroke-width="40"/>

<text x="80" y="148" font-family="'IBM Plex Mono', monospace" font-size="16" fill="#00e5ff" letter-spacing="3">CYBERSECURITY · TRYHACKME · STUDY NOTES</text>

<text x="80" y="280" font-family="'DM Sans', sans-serif" font-size="110" font-weight="700" fill="#f0f6fc" letter-spacing="-3">Aden's</text>
<text x="80" y="400" font-family="'DM Sans', sans-serif" font-size="110" font-weight="700" fill="#00e5ff" letter-spacing="-3">Study Portal</text>

<rect x="80" y="430" width="700" height="1.5" fill="#30363d"/>

<text x="80" y="478" font-family="'DM Sans', sans-serif" font-size="26" fill="#8b949e">Study guides · Quiz · Glossary · TryHackMe lab notes</text>

<text x="80" y="530" font-family="'IBM Plex Mono', monospace" font-size="20" fill="#00e5ff" opacity="0.8">adengfx.github.io/cybersecurity-study-portal</text>

<rect x="840" y="340" width="300" height="60" rx="6" fill="#161b22" stroke="#30363d" stroke-width="1"/>
<text x="990" y="377" font-family="'IBM Plex Mono', monospace" font-size="18" fill="#7ee787" text-anchor="middle">Pre-Security 32%</text>

<rect x="840" y="416" width="300" height="60" rx="6" fill="#161b22" stroke="#30363d" stroke-width="1"/>
<text x="990" y="453" font-family="'IBM Plex Mono', monospace" font-size="18" fill="#00e5ff" text-anchor="middle">120+ quiz questions</text>

<rect x="840" y="492" width="300" height="60" rx="6" fill="#161b22" stroke="#30363d" stroke-width="1"/>
<text x="990" y="529" font-family="'IBM Plex Mono', monospace" font-size="18" fill="#d2a8ff" text-anchor="middle">Glossary + flashcards</text>
</svg>
